<svg width="1200" height="360" viewBox="0 0 1200 360" fill="none" xmlns="http://www.w3.org/2000/svg" role="img" aria-label="Aura Motion Kit banner">
  <rect width="1200" height="360" rx="34" fill="#fff9fb"/>
  <path d="M0 310 C180 220 310 395 510 286 C706 180 872 336 1200 170" stroke="#ff8fc7" stroke-width="2" opacity=".28"/>
  <path d="M0 58 H1200 M120 0 V360 M280 0 V360 M440 0 V360 M600 0 V360 M760 0 V360 M920 0 V360 M1080 0 V360" stroke="#231b2e" opacity=".08"/>
  
    <text x="70" y="128" fill="#231b2e" font-size="22" font-weight="800" letter-spacing="4">AURA-MOTION-KIT</text>
    <text x="70" y="192" fill="#231b2e" font-size="58" font-weight="900">Aura Motion Kit</text>
    <foreignObject x="70" y="218" width="610" height="88">
      <div xmlns="http://www.w3.org/1999/xhtml" style="color:#231b2e;font:700 24px Segoe UI, Arial, sans-serif;line-height:1.25">A soft interaction kit for pastel motion, tactile buttons, floating tags, and tiny sounds.</div>
    </foreignObject>
  <circle cx="890" cy="180" r="150" fill="#ff8fc7" opacity=".45"/><circle cx="980" cy="130" r="105" fill="#8ee6ff" opacity=".55"/><circle cx="805" cy="115" r="72" fill="#231b2e" opacity=".18"/><path d="M760 250 C835 105 1010 325 1070 120" fill="none" stroke="#231b2e" stroke-width="7" stroke-linecap="round"/>
  <text x="70" y="315" fill="#231b2e" font-size="18" font-weight="800" opacity=".72">Portfolio README identity 10</text>
</svg>
